<svg xmlns="http://www.w3.org/2000/svg" viewBox="0 0 1102.91309 112.24512"><defs><style>.cls-1{fill:#231f20;}</style></defs><g id="Layer_2" data-name="Layer 2"><g id="Layer_1-2" data-name="Layer 1"><path class="cls-1" d="M83.47461,9.55469v73.71H65.51953V41.68457L48.40527,83.26465h-13.335L17.95508,41.68457V83.26465H0v-73.71H20.58008L41.79,60.375,62.89453,9.55469Z"/><path class="cls-1" d="M137.96973,29.18945a17.69494,17.69494,0,0,1,7.34961,14.07032h-18.375q-.31494-3.044-2.09961-4.14747a10.36982,10.36982,0,0,0-5.35547-1.10253A10.148,10.148,0,0,0,114.292,39.1123a3.52,3.52,0,0,0-1.83691,3.20215q0,2.417,2.67676,3.51758a59.56591,59.56591,0,0,0,8.76757,2.46777,87.95452,87.95452,0,0,1,10.97266,2.8877,18.30658,18.30658,0,0,1,7.50781,4.93457q3.14941,3.41309,3.14942,9.293a15.49373,15.49373,0,0,1-3.20215,9.65918,21.05813,21.05813,0,0,1-8.82031,6.5625A32.06283,32.06283,0,0,1,120.96,84q-10.92187,0-18.06055-4.88281-7.14111-4.88233-7.76953-14.4375h18.375a5.60881,5.60881,0,0,0,2.30957,4.09472,9.38938,9.38938,0,0,0,5.25,1.25977,8.67841,8.67841,0,0,0,5.19727-1.46973,4.29991,4.29991,0,0,0,2.04785-3.56933q0-2.521-2.835-3.72754a51.11206,51.11206,0,0,0-8.92481-2.46778,89.35345,89.35345,0,0,1-10.86816-2.835A17.96608,17.96608,0,0,1,98.332,51.1875a12.45486,12.45486,0,0,1-3.09765-8.873,15.72155,15.72155,0,0,1,2.88769-9.1875,19.589,19.589,0,0,1,8.61035-6.61523A34.801,34.801,0,0,1,120.54,24.04492Q131.03712,24.04492,137.96973,29.18945Z"/><path class="cls-1" d="M156.13379,66.46484a9.426,9.426,0,0,1,6.93066-2.835A9.68527,9.68527,0,0,1,172.93359,73.5a9.42375,9.42375,0,0,1-2.835,6.92969,9.55307,9.55307,0,0,1-7.03418,2.835A9.68044,9.68044,0,0,1,153.29883,73.5,9.55529,9.55529,0,0,1,156.13379,66.46484Z"/><path class="cls-1" d="M266.3291,72.60742a23.978,23.978,0,0,1-9.66015,8.29492A31.36212,31.36212,0,0,1,242.54688,84q-12.91554,0-20.52833-5.98535-7.61425-5.98536-7.6123-17.00977H233.5166q.73242,8.81983,9.03028,8.81934a8.6051,8.6051,0,0,0,6.08984-2.04688,7.03119,7.03119,0,0,0,2.20508-5.40722A6.5398,6.5398,0,0,0,248.95117,57.54a13.05648,13.05648,0,0,0-4.62012-2.94043q-2.73047-1.04883-7.875-2.51953a77.79621,77.79621,0,0,1-11.33984-3.88574,19.70022,19.70022,0,0,1-7.55957-6.08985q-3.15088-4.09423-3.15039-10.91992a20.46911,20.46911,0,0,1,3.57031-11.96973,23.16428,23.16428,0,0,1,9.71192-7.92773,32.59811,32.59811,0,0,1,13.59765-2.78223q12.28564,0,19.63575,5.40723,7.34765,5.40966,7.665,17.0625H249.05664a9.85573,9.85573,0,0,0-2.57226-6.14258,7.34278,7.34278,0,0,0-5.40821-2.15234,8.51185,8.51185,0,0,0-5.61719,1.78515,6.68653,6.68653,0,0,0-2.15234,5.46,6.85034,6.85034,0,0,0,1.88965,4.98731,13.01978,13.01978,0,0,0,4.77734,3.04492,74.3356,74.3356,0,0,0,7.82325,2.36231,93.86468,93.86468,0,0,1,11.3916,3.88574,18.38032,18.38032,0,0,1,7.45507,6.03711q3.09669,4.14843,3.09766,11.07715A20.17718,20.17718,0,0,1,266.3291,72.60742Z"/><path class="cls-1" d="M323.5,32.33984v-7.665h17.95508V83.26465H323.5V74.75977Q316.98877,84,306.28027,84a25.07037,25.07037,0,0,1-13.38769-3.78027,26.62706,26.62706,0,0,1-9.71289-10.60547,33.02082,33.02082,0,0,1-3.56934-15.54,33.03754,33.03754,0,0,1,3.56934-15.54A27.03527,27.03527,0,0,1,292.89258,27.877a24.81312,24.81312,0,0,1,13.38769-3.832Q317.51416,24.04492,323.5,32.33984Zm-18.95215,8.87207a12.24051,12.24051,0,0,0-4.83008,4.88282,16.013,16.013,0,0,0-1.83789,7.97949,15.71,15.71,0,0,0,1.83789,7.92773,12.39576,12.39576,0,0,0,4.77735,4.83008,12.50221,12.50221,0,0,0,12.33789,0,12.232,12.232,0,0,0,4.8291-4.88281A16.01566,16.01566,0,0,0,323.5,53.96973a15.72768,15.72768,0,0,0-1.83789-7.92774,12.44817,12.44817,0,0,0-4.77734-4.83008,12.50692,12.50692,0,0,0-12.33692,0Z"/><path class="cls-1" d="M382.40527,27.14258A15.98323,15.98323,0,0,1,391.96,24.04492V42.31445H387.5498q-6.19628,0-9.292,2.94043-3.09814,2.93994-3.09765,10.29V83.26465H357.20508V24.6748h17.95508V35.59473A24.98889,24.98889,0,0,1,382.40527,27.14258Z"/><path class="cls-1" d="M403.19434,3.04492a10.64883,10.64883,0,0,1,14.91015,0,10.27016,10.27016,0,0,1,3.04492,7.55957,10.13978,10.13978,0,0,1-3.04492,7.45508,10.64883,10.64883,0,0,1-14.91015,0,10.13225,10.13225,0,0,1-3.04493-7.45508A10.26261,10.26261,0,0,1,403.19434,3.04492ZM419.67969,24.6748V83.26465H401.72461V24.6748Z"/><path class="cls-1" d="M474.1748,29.18945a17.69488,17.69488,0,0,1,7.34961,14.07032h-18.375q-.31494-3.044-2.09961-4.14747a10.36975,10.36975,0,0,0-5.35546-1.10253,10.148,10.148,0,0,0-5.19727,1.10253,3.52,3.52,0,0,0-1.83691,3.20215q0,2.417,2.67675,3.51758a59.5665,59.5665,0,0,0,8.76758,2.46777,87.95452,87.95452,0,0,1,10.97266,2.8877,18.30658,18.30658,0,0,1,7.50781,4.93457q3.14941,3.41309,3.14942,9.293a15.49373,15.49373,0,0,1-3.20215,9.65918,21.05823,21.05823,0,0,1-8.82032,6.5625A32.06275,32.06275,0,0,1,457.165,84q-10.92187,0-18.06055-4.88281-7.14111-4.88233-7.76953-14.4375H449.71a5.60881,5.60881,0,0,0,2.30957,4.09472,9.38938,9.38938,0,0,0,5.25,1.25977,8.67841,8.67841,0,0,0,5.19727-1.46973,4.29991,4.29991,0,0,0,2.04785-3.56933q0-2.521-2.835-3.72754a51.11206,51.11206,0,0,0-8.92481-2.46778,89.35345,89.35345,0,0,1-10.86816-2.835,17.96608,17.96608,0,0,1-7.34961-4.77734,12.45487,12.45487,0,0,1-3.09766-8.873,15.72156,15.72156,0,0,1,2.8877-9.1875,19.58883,19.58883,0,0,1,8.61035-6.61523,34.801,34.801,0,0,1,13.80762-2.4668Q467.24218,24.04492,474.1748,29.18945Z"/><path class="cls-1" d="M541.11133,27.03711a20.62747,20.62747,0,0,1,7.98047,8.66211,29.04888,29.04888,0,0,1,2.88769,13.335V83.26465H534.12891V51.44922q0-5.66895-2.99219-8.7666a12.51545,12.51545,0,0,0-16.48535,0q-2.99268,3.09815-2.99219,8.7666V83.26465H493.7041V5.56445h17.95508V33.28418a18.61685,18.61685,0,0,1,7.19238-6.77246,21.87293,21.87293,0,0,1,10.55274-2.4668A22.67181,22.67181,0,0,1,541.11133,27.03711Z"/><path class="cls-1" d="M659.499,30.65918q6.3003,6.61524,6.29981,18.375V83.26465H647.94922V51.44922q0-5.66895-2.99219-8.7666a12.51545,12.51545,0,0,0-16.48535,0q-2.99268,3.09815-2.99219,8.7666V83.26465H607.62891V51.44922q0-5.66895-2.99219-8.7666a12.51545,12.51545,0,0,0-16.48535,0q-2.99268,3.09815-2.99219,8.7666V83.26465H567.2041V24.6748h17.95508v8.60938a18.61685,18.61685,0,0,1,7.19238-6.77246,21.87293,21.87293,0,0,1,10.55274-2.4668,22.79837,22.79837,0,0,1,11.60254,2.93946,20.225,20.225,0,0,1,7.92773,8.40039,25.045,25.045,0,0,1,8.45215-8.24219,22.23479,22.23479,0,0,1,11.60254-3.09766Q653.19874,24.04492,659.499,30.65918Z"/><path class="cls-1" d="M720.60938,32.33984v-7.665h17.95507V83.26465H720.60938V74.75977Q714.09814,84,703.38965,84a25.07041,25.07041,0,0,1-13.3877-3.78027,26.6272,26.6272,0,0,1-9.71289-10.60547,33.02094,33.02094,0,0,1-3.56933-15.54,33.03766,33.03766,0,0,1,3.56933-15.54A27.03541,27.03541,0,0,1,690.002,27.877a24.81316,24.81316,0,0,1,13.3877-3.832Q714.62354,24.04492,720.60938,32.33984Zm-18.95215,8.87207a12.24045,12.24045,0,0,0-4.83008,4.88282,16.01292,16.01292,0,0,0-1.83789,7.97949,15.70991,15.70991,0,0,0,1.83789,7.92773,12.39567,12.39567,0,0,0,4.77734,4.83008,12.50221,12.50221,0,0,0,12.33789,0,12.23194,12.23194,0,0,0,4.8291-4.88281,16.01566,16.01566,0,0,0,1.8379-7.97949,15.72768,15.72768,0,0,0-1.8379-7.92774,12.448,12.448,0,0,0-4.77734-4.83008,12.50691,12.50691,0,0,0-12.33691,0Z"/><path class="cls-1" d="M846.87109,65.51953A35.37031,35.37031,0,0,1,832.48633,78.5918a45.08385,45.08385,0,0,1-20.73828,4.67285H785.81348v-73.71h25.93457a45.42713,45.42713,0,0,1,20.79,4.62011,35.10848,35.10848,0,0,1,14.333,13.01954,35.77354,35.77354,0,0,1,5.19727,19.21484A35.57072,35.57072,0,0,1,846.87109,65.51953ZM827.919,63.31445q5.87841-6.30028,5.87988-16.90527,0-10.604-5.87988-16.9043-5.88282-6.30028-16.1709-6.2998h-7.9795V69.61426h7.9795Q822.03857,69.61426,827.919,63.31445Z"/><path class="cls-1" d="M902.99316,32.33984v-7.665h17.95508V83.26465H902.99316V74.75977Q896.48193,84,885.77344,84a25.07041,25.07041,0,0,1-13.3877-3.78027,26.6272,26.6272,0,0,1-9.71289-10.60547,33.02094,33.02094,0,0,1-3.56933-15.54,33.03766,33.03766,0,0,1,3.56933-15.54A27.03541,27.03541,0,0,1,872.38574,27.877a24.81316,24.81316,0,0,1,13.3877-3.832Q897.00733,24.04492,902.99316,32.33984ZM884.041,41.21191a12.24045,12.24045,0,0,0-4.83008,4.88282,16.01292,16.01292,0,0,0-1.83789,7.97949,15.70991,15.70991,0,0,0,1.83789,7.92773,12.39567,12.39567,0,0,0,4.77734,4.83008,12.50221,12.50221,0,0,0,12.33789,0,12.23194,12.23194,0,0,0,4.8291-4.88281,16.01566,16.01566,0,0,0,1.83789-7.97949,15.72768,15.72768,0,0,0-1.83789-7.92774,12.4481,12.4481,0,0,0-4.77734-4.83008,12.50691,12.50691,0,0,0-12.33691,0Z"/><path class="cls-1" d="M984.10547,27.03711a20.62747,20.62747,0,0,1,7.98047,8.66211,29.04888,29.04888,0,0,1,2.88769,13.335V83.26465H977.12305V51.44922q0-5.66895-2.99219-8.7666a12.51545,12.51545,0,0,0-16.48535,0q-2.99268,3.09815-2.99219,8.7666V83.26465H936.69824V24.6748h17.95508v8.60938a18.61685,18.61685,0,0,1,7.19238-6.77246,21.873,21.873,0,0,1,10.55274-2.4668A22.67181,22.67181,0,0,1,984.10547,27.03711Z"/><path class="cls-1" d="M1049.7832,32.33984v-7.665h17.95508V82.94922q0,12.91553-7.19238,21.10547-7.19385,8.18994-22.208,8.19043-13.44141,0-21.31445-5.46094-7.875-5.45948-8.92481-16.69434h17.63965q2.51953,6.61524,12.59961,6.61524a11.01515,11.01515,0,0,0,8.19043-3.30762q3.25342-3.30762,3.25488-10.44824V74.75977Q1043.272,84,1032.56348,84a25.07041,25.07041,0,0,1-13.3877-3.78027,26.62713,26.62713,0,0,1-9.71289-10.60547,33.02094,33.02094,0,0,1-3.56934-15.54,33.03766,33.03766,0,0,1,3.56934-15.54,27.03534,27.03534,0,0,1,9.71289-10.65723,24.81316,24.81316,0,0,1,13.3877-3.832Q1043.79736,24.04492,1049.7832,32.33984Zm-18.95215,8.87207a12.24049,12.24049,0,0,0-4.83007,4.88282,16.01292,16.01292,0,0,0-1.83789,7.97949A15.70991,15.70991,0,0,0,1026.001,62.002a12.39567,12.39567,0,0,0,4.77734,4.83008,12.50221,12.50221,0,0,0,12.33789,0,12.23194,12.23194,0,0,0,4.8291-4.88281,16.01566,16.01566,0,0,0,1.83789-7.97949,15.72768,15.72768,0,0,0-1.83789-7.92774,12.4481,12.4481,0,0,0-4.77734-4.83008,12.50692,12.50692,0,0,0-12.33692,0Z"/><path class="cls-1" d="M1084.958,3.04492a10.64883,10.64883,0,0,1,14.91015,0,10.27017,10.27017,0,0,1,3.04493,7.55957,10.13979,10.13979,0,0,1-3.04493,7.45508,10.64883,10.64883,0,0,1-14.91015,0,10.13224,10.13224,0,0,1-3.04492-7.45508A10.2626,10.2626,0,0,1,1084.958,3.04492Zm16.48535,21.62988V83.26465h-17.95508V24.6748Z"/></g></g></svg>