<svg xmlns="http://www.w3.org/2000/svg" viewBox="0 0 540.53711 112.24512"><defs><style>.cls-1{fill:#231f20;}</style></defs><g id="Layer_2" data-name="Layer 2"><g id="Layer_1-2" data-name="Layer 1"><path class="cls-1" d="M56.85742,13.335A35.48118,35.48118,0,0,1,70.50684,26.77441a38.05589,38.05589,0,0,1,4.98828,19.42481,38.01577,38.01577,0,0,1-5.04,19.47754A35.83367,35.83367,0,0,1,56.80469,79.16992,38.1713,38.1713,0,0,1,37.7998,84a38.465,38.465,0,0,1-19.05761-4.83008A35.71068,35.71068,0,0,1,5.04,65.67676,38.00616,38.00616,0,0,1,0,46.19922,37.73522,37.73522,0,0,1,5.04,26.77441,35.84624,35.84624,0,0,1,18.74219,13.335,38.48577,38.48577,0,0,1,37.7998,8.50488,38.48578,38.48578,0,0,1,56.85742,13.335ZM23.57227,30.76465q-5.30274,5.77587-5.30274,15.43457,0,9.66212,5.30274,15.43555,5.30127,5.77587,14.22753,5.77441,8.81984,0,14.12208-5.77441,5.30125-5.773,5.30273-15.43555,0-9.65917-5.30273-15.43457-5.30274-5.77294-14.12208-5.77539Q28.87452,24.98926,23.57227,30.76465Z"/><path class="cls-1" d="M112.24414,27.14258a15.98323,15.98323,0,0,1,9.55469-3.09766V42.31445h-4.41016q-6.19629,0-9.292,2.94043-3.09815,2.93994-3.09766,10.29V83.26465H87.044V24.6748H104.999V35.59473A24.989,24.989,0,0,1,112.24414,27.14258Z"/><path class="cls-1" d="M171.14844,32.33984v-7.665h17.95508V82.94922q0,12.91553-7.19239,21.10547-7.19385,8.18994-22.208,8.19043-13.44141,0-21.31446-5.46094-7.875-5.45948-8.9248-16.69434h17.63965q2.51952,6.61524,12.59961,6.61524a11.01513,11.01513,0,0,0,8.19042-3.30762q3.25342-3.30762,3.25489-10.44824V74.75977Q164.63721,84,153.92871,84A25.07035,25.07035,0,0,1,140.541,80.21973a26.62706,26.62706,0,0,1-9.71289-10.60547,33.02082,33.02082,0,0,1-3.56934-15.54,33.03754,33.03754,0,0,1,3.56934-15.54A27.03527,27.03527,0,0,1,140.541,27.877a24.8131,24.8131,0,0,1,13.38769-3.832Q165.1626,24.04492,171.14844,32.33984Zm-18.95215,8.87207a12.24045,12.24045,0,0,0-4.83008,4.88282,16.013,16.013,0,0,0-1.83789,7.97949,15.71,15.71,0,0,0,1.83789,7.92773,12.39574,12.39574,0,0,0,4.77734,4.83008,12.50223,12.50223,0,0,0,12.3379,0,12.232,12.232,0,0,0,4.8291-4.88281,16.01566,16.01566,0,0,0,1.83789-7.97949,15.72768,15.72768,0,0,0-1.83789-7.92774,12.44813,12.44813,0,0,0-4.77735-4.83008,12.50691,12.50691,0,0,0-12.33691,0Z"/><path class="cls-1" d="M244.43848,32.33984v-7.665h17.95507V83.26465H244.43848V74.75977Q237.92725,84,227.21875,84a25.07041,25.07041,0,0,1-13.3877-3.78027,26.6272,26.6272,0,0,1-9.71289-10.60547,33.02094,33.02094,0,0,1-3.56933-15.54,33.03766,33.03766,0,0,1,3.56933-15.54A27.03541,27.03541,0,0,1,213.83105,27.877a24.81316,24.81316,0,0,1,13.3877-3.832Q238.45264,24.04492,244.43848,32.33984Zm-18.95215,8.87207a12.24045,12.24045,0,0,0-4.83008,4.88282,16.01292,16.01292,0,0,0-1.83789,7.97949,15.70991,15.70991,0,0,0,1.83789,7.92773,12.39574,12.39574,0,0,0,4.77734,4.83008,12.50221,12.50221,0,0,0,12.33789,0,12.232,12.232,0,0,0,4.82911-4.88281,16.01566,16.01566,0,0,0,1.83789-7.97949,15.72768,15.72768,0,0,0-1.83789-7.92774,12.44813,12.44813,0,0,0-4.77735-4.83008,12.50691,12.50691,0,0,0-12.33691,0Z"/><path class="cls-1" d="M325.55078,27.03711a20.62747,20.62747,0,0,1,7.98047,8.66211,29.04888,29.04888,0,0,1,2.8877,13.335V83.26465H318.56836V51.44922q0-5.66895-2.99219-8.7666a12.51545,12.51545,0,0,0-16.48535,0q-2.99268,3.09815-2.99219,8.7666V83.26465H278.14355V24.6748h17.95508v8.60938a18.61688,18.61688,0,0,1,7.19239-6.77246,21.87291,21.87291,0,0,1,10.55273-2.4668A22.67178,22.67178,0,0,1,325.55078,27.03711Z"/><path class="cls-1" d="M353.11328,3.04492a10.64884,10.64884,0,0,1,14.91016,0,10.2702,10.2702,0,0,1,3.04492,7.55957,10.13982,10.13982,0,0,1-3.04492,7.45508,10.64884,10.64884,0,0,1-14.91016,0,10.13224,10.13224,0,0,1-3.04492-7.45508A10.2626,10.2626,0,0,1,353.11328,3.04492ZM369.59863,24.6748V83.26465H351.64355V24.6748Z"/><path class="cls-1" d="M403.8291,68.46h22.46973V83.26465h-43.5752V68.46l22.46973-28.98047H382.72363V24.6748h43.5752V39.47949Z"/><path class="cls-1" d="M493.81348,59.84961H453.49414a9.69242,9.69242,0,0,0,3.46484,6.35254,11.03826,11.03826,0,0,0,7.34961,2.46777,10.0737,10.0737,0,0,0,5.04-.998,14.35328,14.35328,0,0,0,3.57032-3.30762h19.4248A25.735,25.735,0,0,1,482.26367,78.5918,30.03732,30.03732,0,0,1,464.30859,84a30.67289,30.67289,0,0,1-15.06738-3.67578,25.78334,25.78334,0,0,1-10.39453-10.55176,32.84424,32.84424,0,0,1-3.72754-15.9082,32.23824,32.23824,0,0,1,3.72754-15.80176A25.71,25.71,0,0,1,449.18848,27.667a30.74129,30.74129,0,0,1,15.01562-3.62207,32.97639,32.97639,0,0,1,15.33008,3.51758A25.96315,25.96315,0,0,1,490.2959,37.9043a32.0336,32.0336,0,0,1,3.9375,16.27539A36.00488,36.00488,0,0,1,493.81348,59.84961ZM475.544,48.61426a9.54228,9.54228,0,0,0-3.57032-6.667A11.883,11.883,0,0,0,464.2041,39.375a10.18318,10.18318,0,0,0-6.93066,2.57227,11.19909,11.19909,0,0,0-3.67481,6.667Z"/><path class="cls-1" d="M530.98242,27.14258a15.98323,15.98323,0,0,1,9.55469-3.09766V42.31445H536.127q-6.19629,0-9.292,2.94043-3.09815,2.93994-3.09766,10.29V83.26465H505.78223V24.6748H523.7373V35.59473A24.989,24.989,0,0,1,530.98242,27.14258Z"/></g></g></svg>