<svg xmlns="http://www.w3.org/2000/svg" viewBox="0 0 989.82715 111.19434"><defs><style>.cls-1{fill:#231f20;}</style></defs><g id="Layer_2" data-name="Layer 2"><g id="Layer_1-2" data-name="Layer 1"><path class="cls-1" d="M83.47461,9.55469v73.71H65.51953V41.68457L48.40527,83.26465h-13.335L17.95508,41.68457V83.26465H0v-73.71H20.58008L41.79,60.375,62.89453,9.55469Z"/><path class="cls-1" d="M124.4248,27.14258a15.98327,15.98327,0,0,1,9.55469-3.09766V42.31445h-4.41015q-6.19629,0-9.292,2.94043-3.09814,2.93994-3.09765,10.29V83.26465H99.22461V24.6748h17.95508V35.59473A24.98889,24.98889,0,0,1,124.4248,27.14258Z"/><path class="cls-1" d="M142.37891,66.46484a9.426,9.426,0,0,1,6.93066-2.835A9.68527,9.68527,0,0,1,159.17871,73.5a9.42375,9.42375,0,0,1-2.835,6.92969,9.55307,9.55307,0,0,1-7.03418,2.835A9.68044,9.68044,0,0,1,139.544,73.5,9.55529,9.55529,0,0,1,142.37891,66.46484Z"/><path class="cls-1" d="M252.57422,72.60742a23.978,23.978,0,0,1-9.66016,8.29492A31.36209,31.36209,0,0,1,228.792,84q-12.91553,0-20.52832-5.98535-7.61425-5.98536-7.6123-17.00977h19.11035q.73242,8.81983,9.03027,8.81934a8.60512,8.60512,0,0,0,6.08985-2.04688,7.03122,7.03122,0,0,0,2.20507-5.40722A6.53979,6.53979,0,0,0,235.19629,57.54a13.05666,13.05666,0,0,0-4.62012-2.94043q-2.73046-1.04883-7.875-2.51953a77.79621,77.79621,0,0,1-11.33984-3.88574,19.70022,19.70022,0,0,1-7.55957-6.08985q-3.15089-4.09423-3.15039-10.91992a20.46911,20.46911,0,0,1,3.57031-11.96973,23.16431,23.16431,0,0,1,9.71191-7.92773,32.59819,32.59819,0,0,1,13.59766-2.78223q12.28564,0,19.63574,5.40723,7.34766,5.40966,7.665,17.0625H235.30176a9.85574,9.85574,0,0,0-2.57227-6.14258,7.34276,7.34276,0,0,0-5.4082-2.15234,8.51185,8.51185,0,0,0-5.61719,1.78515,6.6865,6.6865,0,0,0-2.15234,5.46,6.85034,6.85034,0,0,0,1.88965,4.98731,13.01978,13.01978,0,0,0,4.77734,3.04492,74.3353,74.3353,0,0,0,7.82324,2.36231,93.86347,93.86347,0,0,1,11.3916,3.88574,18.38035,18.38035,0,0,1,7.45508,6.03711q3.09669,4.14843,3.09766,11.07715A20.17718,20.17718,0,0,1,252.57422,72.60742Z"/><path class="cls-1" d="M317.56738,27.03711a20.62747,20.62747,0,0,1,7.98047,8.66211,29.04888,29.04888,0,0,1,2.8877,13.335V83.26465H310.585V51.44922q0-5.66895-2.99219-8.7666a12.51545,12.51545,0,0,0-16.48535,0q-2.99268,3.09815-2.99219,8.7666V83.26465H270.16016V5.56445h17.95507V33.28418a18.617,18.617,0,0,1,7.19239-6.77246,21.87291,21.87291,0,0,1,10.55273-2.4668A22.67176,22.67176,0,0,1,317.56738,27.03711Z"/><path class="cls-1" d="M345.12988,3.04492a10.64884,10.64884,0,0,1,14.91016,0,10.27016,10.27016,0,0,1,3.04492,7.55957A10.13978,10.13978,0,0,1,360.04,18.05957a10.64884,10.64884,0,0,1-14.91016,0,10.13224,10.13224,0,0,1-3.04492-7.45508A10.2626,10.2626,0,0,1,345.12988,3.04492ZM361.61523,24.6748V83.26465H343.66016V24.6748Z"/><path class="cls-1" d="M402.35547,68.25l13.335-43.5752H434.7998l-20.79,58.58985H390.7002l-20.79-58.58985h19.11035Z"/><path class="cls-1" d="M482.67969,32.33984v-7.665h17.95508V83.26465H482.67969V74.75977Q476.16846,84,465.46,84a25.07035,25.07035,0,0,1-13.38769-3.78027,26.62706,26.62706,0,0,1-9.71289-10.60547,33.02082,33.02082,0,0,1-3.56934-15.54,33.03754,33.03754,0,0,1,3.56934-15.54A27.03527,27.03527,0,0,1,452.07227,27.877a24.8131,24.8131,0,0,1,13.38769-3.832Q476.69385,24.04492,482.67969,32.33984Zm-18.95215,8.87207a12.24045,12.24045,0,0,0-4.83008,4.88282,16.013,16.013,0,0,0-1.83789,7.97949,15.71,15.71,0,0,0,1.83789,7.92773A12.39574,12.39574,0,0,0,463.6748,66.832a12.50223,12.50223,0,0,0,12.3379,0,12.232,12.232,0,0,0,4.8291-4.88281,16.01566,16.01566,0,0,0,1.83789-7.97949A15.72768,15.72768,0,0,0,480.8418,46.042a12.44813,12.44813,0,0,0-4.77735-4.83008,12.50691,12.50691,0,0,0-12.33691,0Z"/><path class="cls-1" d="M608.67969,30.65918q6.30028,6.61524,6.2998,18.375V83.26465H597.12988V51.44922q0-5.66895-2.99218-8.7666a12.51546,12.51546,0,0,0-16.48536,0q-2.99266,3.09815-2.99218,8.7666V83.26465H556.80957V51.44922q0-5.66895-2.99219-8.7666a12.51545,12.51545,0,0,0-16.48535,0q-2.99268,3.09815-2.99219,8.7666V83.26465H516.38477V24.6748h17.95507v8.60938a18.61688,18.61688,0,0,1,7.19239-6.77246,21.87291,21.87291,0,0,1,10.55273-2.4668,22.79831,22.79831,0,0,1,11.60254,2.93946,20.225,20.225,0,0,1,7.92773,8.40039,25.045,25.045,0,0,1,8.45215-8.24219,22.23481,22.23481,0,0,1,11.60254-3.09766Q602.37939,24.04492,608.67969,30.65918Z"/><path class="cls-1" d="M717.03906,15.01465a33.94114,33.94114,0,0,1,13.335,18.05957H708.9541a14.27792,14.27792,0,0,0-5.56543-6.19434,16.48169,16.48169,0,0,0-8.18945-1.89062q-8.9253,0-14.22754,5.77539-5.30274,5.77587-5.30273,15.43457,0,9.66212,5.30273,15.43555,5.30127,5.77587,14.22754,5.77441A16.31556,16.31556,0,0,0,705.64648,64.207a15.43447,15.43447,0,0,0,5.40723-8.55762h-20.79V42H730.374V55.64941a32.86776,32.86776,0,0,1-5.98535,13.125,38.35881,38.35881,0,0,1-12.28418,10.81543,33.54471,33.54471,0,0,1-16.90527,4.30469,38.465,38.465,0,0,1-19.05762-4.83008A35.81876,35.81876,0,0,1,662.43945,65.625a37.72615,37.72615,0,0,1-5.04-19.42578,37.73522,37.73522,0,0,1,5.04-19.42481A35.84631,35.84631,0,0,1,676.1416,13.335a38.48578,38.48578,0,0,1,19.05762-4.83008A37.86883,37.86883,0,0,1,717.03906,15.01465Z"/><path class="cls-1" d="M799.67285,24.6748V83.26465H781.71777V74.6543a18.59508,18.59508,0,0,1-7.19238,6.77246,21.85117,21.85117,0,0,1-10.55273,2.46777,22.66928,22.66928,0,0,1-11.707-2.99219,20.59956,20.59956,0,0,1-7.98047-8.66308,29.01274,29.01274,0,0,1-2.8877-13.335V24.6748h17.85059V56.48926q0,5.67041,2.99218,8.76758a12.51549,12.51549,0,0,0,16.48536,0q2.99266-3.09522,2.99218-8.76758V24.6748Z"/><path class="cls-1" d="M863.98535,27.877a27.04968,27.04968,0,0,1,9.71289,10.65723,33.0493,33.0493,0,0,1,3.56934,15.54,33.03257,33.03257,0,0,1-3.56934,15.54,26.64105,26.64105,0,0,1-9.71289,10.60547A25.07037,25.07037,0,0,1,850.59766,84q-10.92187,0-17.21973-9.24023v36.43457H815.42285V24.6748h17.95508v7.665q5.98534-8.29394,17.21973-8.29492A24.81312,24.81312,0,0,1,863.98535,27.877Zm-23.99219,13.335a12.422,12.422,0,0,0-4.77734,4.83008,15.71752,15.71752,0,0,0-1.83789,7.92774,16.00525,16.00525,0,0,0,1.83789,7.97949,12.21962,12.21962,0,0,0,4.8291,4.88281,12.50221,12.50221,0,0,0,12.33789,0,12.42178,12.42178,0,0,0,4.77735-4.83008,15.73021,15.73021,0,0,0,1.83789-7.92773,16.03378,16.03378,0,0,0-1.83789-7.97949,12.25287,12.25287,0,0,0-4.83008-4.88282,12.50692,12.50692,0,0,0-12.33692,0Z"/><path class="cls-1" d="M920.00293,68.04V83.26465h-9.13477q-9.87158,0-15.27734-4.35742-5.40966-4.35645-5.4082-14.96289V39.585h-5.46V24.6748h5.46V10.39453H908.1377V24.6748h11.75976V39.585H908.1377V63.94434a3.70736,3.70736,0,0,0,1.25976,3.09765,6.85011,6.85011,0,0,0,4.2002.99805Z"/><path class="cls-1" d="M971.87207,32.33984v-7.665h17.95508V83.26465H971.87207V74.75977Q965.36084,84,954.65234,84a25.0704,25.0704,0,0,1-13.38769-3.78027,26.62706,26.62706,0,0,1-9.71289-10.60547,33.02094,33.02094,0,0,1-3.56934-15.54,33.03766,33.03766,0,0,1,3.56934-15.54A27.03527,27.03527,0,0,1,941.26465,27.877a24.81315,24.81315,0,0,1,13.38769-3.832Q965.88623,24.04492,971.87207,32.33984Zm-18.95215,8.87207a12.24051,12.24051,0,0,0-4.83008,4.88282,16.013,16.013,0,0,0-1.83789,7.97949,15.71,15.71,0,0,0,1.83789,7.92773,12.39576,12.39576,0,0,0,4.77735,4.83008,12.50221,12.50221,0,0,0,12.33789,0,12.232,12.232,0,0,0,4.8291-4.88281,16.01566,16.01566,0,0,0,1.83789-7.97949,15.72768,15.72768,0,0,0-1.83789-7.92774,12.44817,12.44817,0,0,0-4.77734-4.83008,12.50692,12.50692,0,0,0-12.33692,0Z"/></g></g></svg>