<svg xmlns="http://www.w3.org/2000/svg" viewBox="0 0 1035.81738 232.68066"><defs><style>.cls-1{fill:#231f20;}</style></defs><g id="Layer_2" data-name="Layer 2"><g id="Layer_1-2" data-name="Layer 1"><path class="cls-1" d="M83.47461,3.99023v73.71H65.51953V36.12012L48.40527,77.7002h-13.335L17.95508,36.12012V77.7002H0v-73.71H20.58008L41.79,54.81055,62.89453,3.99023Z"/><path class="cls-1" d="M124.4248,21.57813a15.98321,15.98321,0,0,1,9.55469-3.09766V36.75h-4.41015q-6.19629,0-9.292,2.94043-3.09814,2.93994-3.09765,10.29V77.7002H99.22461V19.11035h17.95508V30.03027A24.98885,24.98885,0,0,1,124.4248,21.57813Z"/><path class="cls-1" d="M142.37891,60.90039a9.426,9.426,0,0,1,6.93066-2.835,9.68527,9.68527,0,0,1,9.86914,9.87012,9.42371,9.42371,0,0,1-2.835,6.92968,9.55308,9.55308,0,0,1-7.03418,2.835,9.68045,9.68045,0,0,1-9.76562-9.76465A9.55529,9.55529,0,0,1,142.37891,60.90039Z"/><path class="cls-1" d="M266.5918,3.99023v73.71H248.63672V47.14551H220.18164V77.7002H202.22656v-73.71h17.95508V33.49512h28.45508V3.99023Z"/><path class="cls-1" d="M321.9248,26.77539v-7.665h17.95508V77.7002H321.9248V69.19531q-6.51123,9.24024-17.21972,9.24024a25.07042,25.07042,0,0,1-13.3877-3.78028,26.62713,26.62713,0,0,1-9.71289-10.60547,33.02087,33.02087,0,0,1-3.56933-15.54,33.0376,33.0376,0,0,1,3.56933-15.54,27.03541,27.03541,0,0,1,9.71289-10.65723,24.81307,24.81307,0,0,1,13.3877-3.832Q315.939,18.48047,321.9248,26.77539Zm-18.95214,8.87207a12.24049,12.24049,0,0,0-4.83008,4.88281,16.013,16.013,0,0,0-1.83789,7.9795,15.70991,15.70991,0,0,0,1.83789,7.92773,12.39574,12.39574,0,0,0,4.77734,4.83008,12.50221,12.50221,0,0,0,12.33789,0,12.23206,12.23206,0,0,0,4.8291-4.88281,16.0157,16.0157,0,0,0,1.83789-7.9795,15.72764,15.72764,0,0,0-1.83789-7.92773,12.448,12.448,0,0,0-4.77734-4.83008,12.50691,12.50691,0,0,0-12.33691,0Z"/><path class="cls-1" d="M380.83008,21.57813a15.98316,15.98316,0,0,1,9.55469-3.09766V36.75h-4.41016q-6.19629,0-9.292,2.94043-3.09814,2.93994-3.09766,10.29V77.7002H355.62988V19.11035H373.585V30.03027A24.98887,24.98887,0,0,1,380.83008,21.57813Z"/><path class="cls-1" d="M438.89453,23.625a17.69485,17.69485,0,0,1,7.34961,14.07031h-18.375q-.31494-3.04393-2.09961-4.14746a10.36976,10.36976,0,0,0-5.35547-1.10254,10.14794,10.14794,0,0,0-5.19726,1.10254A3.52,3.52,0,0,0,413.37988,36.75q0,2.417,2.67676,3.51758a59.56739,59.56739,0,0,0,8.76758,2.46777,87.955,87.955,0,0,1,10.97266,2.8877,18.30662,18.30662,0,0,1,7.50781,4.93457q3.14941,3.41309,3.14941,9.293a15.49367,15.49367,0,0,1-3.20215,9.65918,21.05813,21.05813,0,0,1-8.82031,6.5625,32.06282,32.06282,0,0,1-12.54687,2.36328q-10.92187,0-18.06055-4.88282-7.14111-4.88232-7.76953-14.4375h18.375A5.6088,5.6088,0,0,0,416.73926,63.21a9.38944,9.38944,0,0,0,5.25,1.25977A8.67838,8.67838,0,0,0,427.18652,63a4.29991,4.29991,0,0,0,2.04786-3.56934q0-2.521-2.835-3.72753a51.11189,51.11189,0,0,0-8.9248-2.46778,89.35431,89.35431,0,0,1-10.86816-2.835,17.966,17.966,0,0,1-7.34961-4.77734,12.45487,12.45487,0,0,1-3.09766-8.873,15.72149,15.72149,0,0,1,2.8877-9.1875,19.58876,19.58876,0,0,1,8.61035-6.61523,34.8009,34.8009,0,0,1,13.80761-2.4668Q431.96192,18.48047,438.89453,23.625Z"/><path class="cls-1" d="M505.83105,21.47266a20.62729,20.62729,0,0,1,7.98047,8.66211,29.04888,29.04888,0,0,1,2.8877,13.335V77.7002H498.84863V45.88477q0-5.669-2.99218-8.76661a12.51549,12.51549,0,0,0-16.48536,0q-2.99266,3.09815-2.99218,8.76661V77.7002H458.42383V0h17.95508V27.71973a18.61678,18.61678,0,0,1,7.19238-6.77246,21.87291,21.87291,0,0,1,10.55273-2.4668A22.67176,22.67176,0,0,1,505.83105,21.47266Z"/><path class="cls-1" d="M575.39258,3.99023,593.66309,60.165,611.93262,3.99023H631.043l-26.14551,73.71H582.42773l-26.14453-73.71Z"/><path class="cls-1" d="M679.2373,26.77539v-7.665h17.95508V77.7002H679.2373V69.19531q-6.51123,9.24024-17.21972,9.24024a25.07042,25.07042,0,0,1-13.3877-3.78028A26.62713,26.62713,0,0,1,638.917,64.0498a33.02087,33.02087,0,0,1-3.56933-15.54,33.0376,33.0376,0,0,1,3.56933-15.54,27.03541,27.03541,0,0,1,9.71289-10.65723,24.81307,24.81307,0,0,1,13.3877-3.832Q673.25147,18.48047,679.2373,26.77539Zm-18.95214,8.87207a12.24049,12.24049,0,0,0-4.83008,4.88281,16.013,16.013,0,0,0-1.83789,7.9795,15.70991,15.70991,0,0,0,1.83789,7.92773,12.39574,12.39574,0,0,0,4.77734,4.83008,12.50221,12.50221,0,0,0,12.33789,0,12.23206,12.23206,0,0,0,4.8291-4.88281,16.0157,16.0157,0,0,0,1.83789-7.9795,15.72764,15.72764,0,0,0-1.83789-7.92773,12.448,12.448,0,0,0-4.77734-4.83008,12.50691,12.50691,0,0,0-12.33691,0Z"/><path class="cls-1" d="M738.14258,21.57813a15.98316,15.98316,0,0,1,9.55469-3.09766V36.75h-4.41016q-6.19629,0-9.292,2.94043-3.09814,2.93994-3.09766,10.29V77.7002H712.94238V19.11035h17.95508V30.03027A24.98887,24.98887,0,0,1,738.14258,21.57813Z"/><path class="cls-1" d="M797.04688,26.77539V0H815.002V77.7002H797.04688V69.19531q-6.51125,9.24024-17.21973,9.24024a25.07042,25.07042,0,0,1-13.3877-3.78028,26.62713,26.62713,0,0,1-9.71289-10.60547,33.02087,33.02087,0,0,1-3.56933-15.54,33.0376,33.0376,0,0,1,3.56933-15.54,27.03541,27.03541,0,0,1,9.71289-10.65723,24.81307,24.81307,0,0,1,13.3877-3.832Q791.061,18.48047,797.04688,26.77539Zm-18.95215,8.87207a12.24049,12.24049,0,0,0-4.83008,4.88281,16.013,16.013,0,0,0-1.83789,7.9795,15.70991,15.70991,0,0,0,1.83789,7.92773,12.39574,12.39574,0,0,0,4.77734,4.83008,12.50221,12.50221,0,0,0,12.33789,0,12.23206,12.23206,0,0,0,4.8291-4.88281,16.0157,16.0157,0,0,0,1.8379-7.9795,15.72764,15.72764,0,0,0-1.8379-7.92773,12.448,12.448,0,0,0-4.77734-4.83008,12.50691,12.50691,0,0,0-12.33691,0Z"/><path class="cls-1" d="M878.15918,21.47266a20.62741,20.62741,0,0,1,7.98047,8.66211,29.04888,29.04888,0,0,1,2.88769,13.335V77.7002H871.17676V45.88477q0-5.669-2.99219-8.76661a12.51548,12.51548,0,0,0-16.48535,0q-2.99268,3.09815-2.99219,8.76661V77.7002H830.752V0H848.707V27.71973a18.61678,18.61678,0,0,1,7.19238-6.77246,21.873,21.873,0,0,1,10.55274-2.4668A22.67181,22.67181,0,0,1,878.15918,21.47266Z"/><path class="cls-1" d="M943.83691,26.77539v-7.665H961.792V77.7002H943.83691V69.19531q-6.51123,9.24024-17.21972,9.24024a25.07042,25.07042,0,0,1-13.3877-3.78028A26.62713,26.62713,0,0,1,903.5166,64.0498a33.02087,33.02087,0,0,1-3.56933-15.54,33.0376,33.0376,0,0,1,3.56933-15.54,27.03541,27.03541,0,0,1,9.71289-10.65723,24.81307,24.81307,0,0,1,13.3877-3.832Q937.85108,18.48047,943.83691,26.77539Zm-18.95214,8.87207a12.24049,12.24049,0,0,0-4.83008,4.88281,16.013,16.013,0,0,0-1.83789,7.9795,15.70991,15.70991,0,0,0,1.83789,7.92773,12.39574,12.39574,0,0,0,4.77734,4.83008,12.50221,12.50221,0,0,0,12.33789,0,12.23206,12.23206,0,0,0,4.8291-4.88281,16.0157,16.0157,0,0,0,1.83789-7.9795,15.72764,15.72764,0,0,0-1.83789-7.92773,12.448,12.448,0,0,0-4.77734-4.83008,12.50691,12.50691,0,0,0-12.33691,0Z"/><path class="cls-1" d="M1024.94922,21.47266a20.62741,20.62741,0,0,1,7.98047,8.66211,29.04888,29.04888,0,0,1,2.88769,13.335V77.7002H1017.9668V45.88477q0-5.669-2.99219-8.76661a12.51548,12.51548,0,0,0-16.48535,0q-2.99268,3.09815-2.99219,8.76661V77.7002H977.542V19.11035h17.95508v8.60938a18.61678,18.61678,0,0,1,7.19238-6.77246,21.873,21.873,0,0,1,10.55274-2.4668A22.67181,22.67181,0,0,1,1024.94922,21.47266Z"/><path class="cls-1" d="M249.3418,193.043a23.97815,23.97815,0,0,1-9.66016,8.29492,31.36209,31.36209,0,0,1-14.12207,3.09766q-12.91553,0-20.52832-5.98535-7.61425-5.98536-7.6123-17.00977H216.5293q.73242,8.81982,9.03027,8.81934a8.60508,8.60508,0,0,0,6.08984-2.04688,7.0312,7.0312,0,0,0,2.20508-5.40723,6.53978,6.53978,0,0,0-1.89062-4.83007,13.05652,13.05652,0,0,0-4.62012-2.94043q-2.73047-1.04883-7.875-2.51953a77.7961,77.7961,0,0,1-11.33984-3.88575,19.7,19.7,0,0,1-7.55957-6.08984q-3.15089-4.09423-3.15039-10.91992a20.46907,20.46907,0,0,1,3.57031-11.96973,23.16425,23.16425,0,0,1,9.71191-7.92773,32.59819,32.59819,0,0,1,13.59766-2.78223q12.28564,0,19.63574,5.40723,7.34766,5.40966,7.665,17.0625H232.06934a9.85579,9.85579,0,0,0-2.57227-6.14258,7.34274,7.34274,0,0,0-5.4082-2.15235,8.51184,8.51184,0,0,0-5.61719,1.78516,6.68649,6.68649,0,0,0-2.15234,5.46,6.85037,6.85037,0,0,0,1.88964,4.98731,13.02,13.02,0,0,0,4.77735,3.04492,74.33324,74.33324,0,0,0,7.82324,2.3623,93.86328,93.86328,0,0,1,11.3916,3.88575,18.38041,18.38041,0,0,1,7.45508,6.0371q3.09668,4.14845,3.09766,11.07715A20.17727,20.17727,0,0,1,249.3418,193.043Z"/><path class="cls-1" d="M268.39746,123.48047a10.64884,10.64884,0,0,1,14.91016,0,10.2702,10.2702,0,0,1,3.04492,7.55957,10.50018,10.50018,0,1,1-21,0A10.2626,10.2626,0,0,1,268.39746,123.48047Zm16.48535,21.62988V203.7002H266.92773V145.11035Z"/><path class="cls-1" d="M348.04,147.47266a20.62741,20.62741,0,0,1,7.98047,8.66211,29.04888,29.04888,0,0,1,2.88769,13.335V203.7002H341.05762V171.88477q0-5.66895-2.99219-8.76661a12.51548,12.51548,0,0,0-16.48535,0q-2.99268,3.09815-2.99219,8.76661V203.7002H300.63281V145.11035h17.95508v8.60938a18.61678,18.61678,0,0,1,7.19238-6.77246,21.873,21.873,0,0,1,10.55274-2.4668A22.67181,22.67181,0,0,1,348.04,147.47266Z"/><path class="cls-1" d="M413.71777,152.77539v-7.665h17.95508v58.27442q0,12.91552-7.19238,21.10546-7.19385,8.19-22.208,8.19043-13.44141,0-21.31445-5.46093-7.875-5.45947-8.92481-16.69434h17.63965q2.51953,6.61524,12.59961,6.61524a11.01515,11.01515,0,0,0,8.19043-3.30762q3.25342-3.30762,3.25488-10.44824v-8.18946q-6.51123,9.24024-17.21972,9.24024a25.07042,25.07042,0,0,1-13.3877-3.78028,26.62713,26.62713,0,0,1-9.71289-10.60547,35.61352,35.61352,0,0,1,0-31.08007,27.03541,27.03541,0,0,1,9.71289-10.65723,24.81307,24.81307,0,0,1,13.3877-3.832Q407.73193,144.48047,413.71777,152.77539Zm-18.95214,8.87207a12.24049,12.24049,0,0,0-4.83008,4.88281,16.013,16.013,0,0,0-1.83789,7.9795,15.70991,15.70991,0,0,0,1.83789,7.92773,12.39574,12.39574,0,0,0,4.77734,4.83008,12.50221,12.50221,0,0,0,12.33789,0,12.23206,12.23206,0,0,0,4.8291-4.88281,16.0157,16.0157,0,0,0,1.83789-7.9795,15.72764,15.72764,0,0,0-1.83789-7.92773,12.448,12.448,0,0,0-4.77734-4.83008,12.50691,12.50691,0,0,0-12.33691,0Z"/><path class="cls-1" d="M494.83008,147.47266a20.62741,20.62741,0,0,1,7.98047,8.66211,29.04888,29.04888,0,0,1,2.88769,13.335V203.7002H487.84766V171.88477q0-5.66895-2.99219-8.76661a12.51548,12.51548,0,0,0-16.48535,0q-2.99268,3.09815-2.99219,8.76661V203.7002H447.42285V126h17.95508v27.71973a18.61678,18.61678,0,0,1,7.19238-6.77246,21.87293,21.87293,0,0,1,10.55274-2.4668A22.67181,22.67181,0,0,1,494.83008,147.47266Z"/><path class="cls-1" d="M589.06641,203.7002l-16.58985-28.665H570.377v28.665H552.42188v-73.71h29.085a31.98614,31.98614,0,0,1,14.75293,3.1504,22.32087,22.32087,0,0,1,9.23925,8.29492,21.20137,21.20137,0,0,1,3.09766,11.12988,22.96856,22.96856,0,0,1-3.88477,12.49512q-3.88623,6.09081-12.70507,8.60937l18.05957,30.03028ZM570.377,161.38477h11.12989a8.61426,8.61426,0,0,0,6.458-2.415,8.76382,8.76382,0,0,0,2.36231-6.4043,8.88608,8.88608,0,0,0-2.415-6.40527,8.46578,8.46578,0,0,0-6.40527-2.51953H570.377Z"/><path class="cls-1" d="M662.14648,152.77539v-7.665h17.95508V203.7002H662.14648v-8.50489q-6.51123,9.24024-17.21972,9.24024a25.07042,25.07042,0,0,1-13.3877-3.78028,26.62713,26.62713,0,0,1-9.71289-10.60547,35.61352,35.61352,0,0,1,0-31.08007,27.03541,27.03541,0,0,1,9.71289-10.65723,24.81307,24.81307,0,0,1,13.3877-3.832Q656.16065,144.48047,662.14648,152.77539Zm-18.95214,8.87207a12.24049,12.24049,0,0,0-4.83008,4.88281,16.013,16.013,0,0,0-1.83789,7.9795,15.70991,15.70991,0,0,0,1.83789,7.92773,12.39574,12.39574,0,0,0,4.77734,4.83008,12.50221,12.50221,0,0,0,12.33789,0,12.23206,12.23206,0,0,0,4.8291-4.88281,16.0157,16.0157,0,0,0,1.83789-7.9795,15.72764,15.72764,0,0,0-1.83789-7.92773,12.448,12.448,0,0,0-4.77734-4.83008,12.50691,12.50691,0,0,0-12.33691,0Z"/><path class="cls-1" d="M778.5918,145.11035,761.05664,203.7002H741.73633l-8.18945-34.6504L725.252,203.7002H705.93164l-17.53516-58.58985h17.95508l9.13477,41.16016,9.03027-41.16016h19.00488l9.03028,41.16016,9.13476-41.16016Z"/><path class="cls-1" d="M826.36621,152.77539v-7.665h17.95508V203.7002H826.36621v-8.50489q-6.51123,9.24024-17.21973,9.24024a25.07041,25.07041,0,0,1-13.38769-3.78028,26.627,26.627,0,0,1-9.71289-10.60547,35.61343,35.61343,0,0,1,0-31.08007,27.03527,27.03527,0,0,1,9.71289-10.65723,24.81306,24.81306,0,0,1,13.38769-3.832Q820.38037,144.48047,826.36621,152.77539Zm-18.95215,8.87207a12.24061,12.24061,0,0,0-4.83008,4.88281,16.01306,16.01306,0,0,0-1.83789,7.9795,15.71,15.71,0,0,0,1.83789,7.92773,12.39583,12.39583,0,0,0,4.77735,4.83008,12.50221,12.50221,0,0,0,12.33789,0,12.23213,12.23213,0,0,0,4.8291-4.88281,16.0157,16.0157,0,0,0,1.83789-7.9795,15.72764,15.72764,0,0,0-1.83789-7.92773,12.4481,12.4481,0,0,0-4.77734-4.83008,12.50692,12.50692,0,0,0-12.33692,0Z"/><path class="cls-1" d="M891.36133,188.47559V203.7002h-9.13477q-9.87158,0-15.27734-4.35743-5.40967-4.35644-5.4082-14.96289V160.02051h-5.46V145.11035h5.46V130.83008h17.95507v14.28027h11.75977v14.91016H879.49609v24.35937a3.70738,3.70738,0,0,0,1.25977,3.09766,6.85014,6.85014,0,0,0,4.20019.99805Z"/></g></g></svg>