<svg xmlns="http://www.w3.org/2000/svg" viewBox="0 0 736.0459 112.24512"><defs><style>.cls-1{fill:#231f20;}</style></defs><g id="Layer_2" data-name="Layer 2"><g id="Layer_1-2" data-name="Layer 1"><path class="cls-1" d="M59.63965,15.01465a33.94114,33.94114,0,0,1,13.335,18.05957H51.55469a14.278,14.278,0,0,0-5.56543-6.19434,16.48176,16.48176,0,0,0-8.18946-1.89062q-8.92528,0-14.22753,5.77539-5.30274,5.77587-5.30274,15.43457,0,9.66212,5.30274,15.43555,5.30127,5.77587,14.22753,5.77441a16.48161,16.48161,0,0,0,8.18946-1.88965,14.26983,14.26983,0,0,0,5.56543-6.19531H72.97461a33.93254,33.93254,0,0,1-13.335,18.06055A37.86169,37.86169,0,0,1,37.7998,83.89453a38.465,38.465,0,0,1-19.05761-4.83008A35.81869,35.81869,0,0,1,5.04,65.625,37.72615,37.72615,0,0,1,0,46.19922,37.73522,37.73522,0,0,1,5.04,26.77441,35.84624,35.84624,0,0,1,18.74219,13.335,38.48577,38.48577,0,0,1,37.7998,8.50488,37.86886,37.86886,0,0,1,59.63965,15.01465Z"/><path class="cls-1" d="M126.36621,27.667A27.53523,27.53523,0,0,1,137.44336,38.0625a29.93522,29.93522,0,0,1,4.09473,15.80176,30.53636,30.53636,0,0,1-4.042,15.85547,27.8888,27.8888,0,0,1-10.97265,10.55273A32.05241,32.05241,0,0,1,111.08887,84a32.65982,32.65982,0,0,1-15.54-3.72754A28.06162,28.06162,0,0,1,84.418,69.71973a30.22073,30.22073,0,0,1-4.09473-15.85547A29.94424,29.94424,0,0,1,84.418,38.0625,27.53157,27.53157,0,0,1,95.49609,27.667a34.69812,34.69812,0,0,1,30.87012,0ZM102.21582,43.10254q-3.62256,3.728-3.62207,10.86719,0,7.14111,3.72754,10.91992a11.91656,11.91656,0,0,0,8.76758,3.78027,11.4176,11.4176,0,0,0,8.60937-3.78027q3.56837-3.7793,3.57031-10.91992,0-7.13965-3.6748-10.86719a11.99027,11.99027,0,0,0-17.37793,0Z"/><path class="cls-1" d="M198.76367,38.95508V53.86426H152.56348V38.95508Z"/><path class="cls-1" d="M255.83008,27.667A27.53529,27.53529,0,0,1,266.90723,38.0625,29.93521,29.93521,0,0,1,271.002,53.86426a30.53635,30.53635,0,0,1-4.042,15.85547A27.88876,27.88876,0,0,1,255.9873,80.27246,32.05235,32.05235,0,0,1,240.55273,84a32.6598,32.6598,0,0,1-15.54-3.72754,28.06156,28.06156,0,0,1-11.13086-10.55273,30.22063,30.22063,0,0,1-4.09473-15.85547,29.94415,29.94415,0,0,1,4.09473-15.80176A27.53151,27.53151,0,0,1,224.96,27.667a34.69812,34.69812,0,0,1,30.87012,0ZM231.67969,43.10254q-3.62256,3.728-3.62207,10.86719,0,7.14111,3.72754,10.91992a11.91652,11.91652,0,0,0,8.76757,3.78027,11.41761,11.41761,0,0,0,8.60938-3.78027q3.56837-3.7793,3.57031-10.91992,0-7.13965-3.6748-10.86719a11.99027,11.99027,0,0,0-17.37793,0Z"/><path class="cls-1" d="M307.75293,27.14258a15.98323,15.98323,0,0,1,9.55469-3.09766V42.31445h-4.41016q-6.19629,0-9.292,2.94043-3.09815,2.93994-3.09766,10.29V83.26465H282.55273V24.6748h17.95508V35.59473A24.989,24.989,0,0,1,307.75293,27.14258Z"/><path class="cls-1" d="M366.65723,32.33984v-7.665H384.6123V82.94922q0,12.91553-7.19238,21.10547-7.19385,8.18994-22.208,8.19043-13.44139,0-21.31445-5.46094-7.875-5.45948-8.9248-16.69434H342.6123q2.51954,6.61524,12.59961,6.61524a11.01513,11.01513,0,0,0,8.19043-3.30762q3.25342-3.30762,3.25489-10.44824V74.75977Q360.146,84,349.4375,84a25.07041,25.07041,0,0,1-13.3877-3.78027,26.6272,26.6272,0,0,1-9.71289-10.60547,33.02094,33.02094,0,0,1-3.56933-15.54,33.03766,33.03766,0,0,1,3.56933-15.54A27.03541,27.03541,0,0,1,336.0498,27.877a24.81316,24.81316,0,0,1,13.3877-3.832Q360.67139,24.04492,366.65723,32.33984Zm-18.95215,8.87207a12.24045,12.24045,0,0,0-4.83008,4.88282,16.01292,16.01292,0,0,0-1.83789,7.97949A15.70991,15.70991,0,0,0,342.875,62.002a12.39574,12.39574,0,0,0,4.77734,4.83008,12.50221,12.50221,0,0,0,12.33789,0,12.232,12.232,0,0,0,4.82911-4.88281,16.01566,16.01566,0,0,0,1.83789-7.97949,15.72768,15.72768,0,0,0-1.83789-7.92774,12.44813,12.44813,0,0,0-4.77735-4.83008,12.50691,12.50691,0,0,0-12.33691,0Z"/><path class="cls-1" d="M439.94727,32.33984v-7.665h17.95507V83.26465H439.94727V74.75977Q433.436,84,422.72754,84a25.07041,25.07041,0,0,1-13.3877-3.78027A26.6272,26.6272,0,0,1,399.627,69.61426a33.02094,33.02094,0,0,1-3.56933-15.54,33.03766,33.03766,0,0,1,3.56933-15.54A27.03541,27.03541,0,0,1,409.33984,27.877a24.81316,24.81316,0,0,1,13.3877-3.832Q433.96143,24.04492,439.94727,32.33984Zm-18.95215,8.87207a12.24045,12.24045,0,0,0-4.83008,4.88282,16.01292,16.01292,0,0,0-1.83789,7.97949A15.70991,15.70991,0,0,0,416.165,62.002a12.39574,12.39574,0,0,0,4.77734,4.83008,12.50221,12.50221,0,0,0,12.33789,0,12.232,12.232,0,0,0,4.82911-4.88281,16.01577,16.01577,0,0,0,1.83789-7.97949,15.72778,15.72778,0,0,0-1.83789-7.92774,12.44813,12.44813,0,0,0-4.77735-4.83008,12.50691,12.50691,0,0,0-12.33691,0Z"/><path class="cls-1" d="M521.05957,27.03711A20.62747,20.62747,0,0,1,529.04,35.69922a29.04888,29.04888,0,0,1,2.88769,13.335V83.26465H514.07715V51.44922q0-5.66895-2.99219-8.7666a12.51545,12.51545,0,0,0-16.48535,0q-2.99268,3.09815-2.99219,8.7666V83.26465H473.65234V24.6748h17.95508v8.60938a18.61692,18.61692,0,0,1,7.19238-6.77246,21.873,21.873,0,0,1,10.55274-2.4668A22.67178,22.67178,0,0,1,521.05957,27.03711Z"/><path class="cls-1" d="M548.62207,3.04492a10.64884,10.64884,0,0,1,14.91016,0,10.2702,10.2702,0,0,1,3.04492,7.55957,10.13982,10.13982,0,0,1-3.04492,7.45508,10.64884,10.64884,0,0,1-14.91016,0,10.13224,10.13224,0,0,1-3.04492-7.45508A10.2626,10.2626,0,0,1,548.62207,3.04492ZM565.10742,24.6748V83.26465H547.15234V24.6748Z"/><path class="cls-1" d="M599.33789,68.46h22.46973V83.26465h-43.5752V68.46l22.46973-28.98047H578.23242V24.6748h43.5752V39.47949Z"/><path class="cls-1" d="M689.32227,59.84961H649.00293a9.69242,9.69242,0,0,0,3.46484,6.35254,11.03826,11.03826,0,0,0,7.34961,2.46777,10.07372,10.07372,0,0,0,5.04-.998,14.35309,14.35309,0,0,0,3.57031-3.30762h19.42481A25.735,25.735,0,0,1,677.77246,78.5918,30.03732,30.03732,0,0,1,659.81738,84,30.67289,30.67289,0,0,1,644.75,80.32422a25.78334,25.78334,0,0,1-10.39453-10.55176,32.84424,32.84424,0,0,1-3.72754-15.9082,32.23824,32.23824,0,0,1,3.72754-15.80176A25.71,25.71,0,0,1,644.69727,27.667a30.74129,30.74129,0,0,1,15.01562-3.62207A32.97639,32.97639,0,0,1,675.043,27.5625a25.96315,25.96315,0,0,1,10.76172,10.3418,32.0336,32.0336,0,0,1,3.9375,16.27539A36.00488,36.00488,0,0,1,689.32227,59.84961ZM671.05273,48.61426a9.54223,9.54223,0,0,0-3.57031-6.667,11.883,11.883,0,0,0-7.76953-2.57227,10.18318,10.18318,0,0,0-6.93066,2.57227,11.19909,11.19909,0,0,0-3.67481,6.667Z"/><path class="cls-1" d="M726.49121,27.14258a15.98323,15.98323,0,0,1,9.55469-3.09766V42.31445h-4.41016q-6.19629,0-9.292,2.94043-3.09814,2.93994-3.09766,10.29V83.26465H701.291V24.6748h17.95507V35.59473A24.989,24.989,0,0,1,726.49121,27.14258Z"/></g></g></svg>